<svg width="546" height="63" viewBox="0 0 546 63" fill="none" xmlns="http://www.w3.org/2000/svg">
<path d="M47.864 1.808V15.248H31.448V62H16.568V15.248H0.152V1.808H47.864ZM68.5505 62H53.6705V1.808H68.5505V24.752H89.6705V1.808H104.551V62H89.6705V38.192H68.5505V62ZM155.236 48.08V62H113.764V1.808H154.372V15.248H128.644V25.232H150.82V37.712H128.644V48.08H155.236Z" fill="white"/>
<path d="M191.363 42.608V62H176.483V1.808H198.467C207.747 1.808 214.339 3.376 218.243 6.512C222.147 9.648 224.099 14.864 224.099 22.16C224.099 27.088 223.043 31.12 220.931 34.256C218.883 37.328 215.747 39.568 211.523 40.976L226.211 62H208.355L195.875 42.608H191.363ZM209.027 22.16C209.027 19.6 208.259 17.808 206.723 16.784C205.187 15.76 202.435 15.248 198.467 15.248H191.363V30.608H198.467C202.435 30.608 205.187 30 206.723 28.784C208.259 27.504 209.027 25.296 209.027 22.16ZM273.361 48.08V62H231.889V1.808H272.497V15.248H246.769V25.232H268.945V37.712H246.769V48.08H273.361ZM303.206 39.536L291.014 36.656C286.15 35.504 282.822 33.744 281.03 31.376C279.302 29.008 278.438 25.616 278.438 21.2C278.438 14.224 280.262 9.104 283.91 5.84C287.622 2.512 293.35 0.847998 301.094 0.847998C304.294 0.847998 307.142 0.975998 309.638 1.232C312.134 1.488 314.438 1.936 316.55 2.576V15.92C311.686 15.088 308.326 14.608 306.47 14.48C304.678 14.352 302.79 14.288 300.806 14.288C298.118 14.288 296.166 14.736 294.95 15.632C293.734 16.528 293.126 18.032 293.126 20.144C293.126 21.168 293.318 21.968 293.702 22.544C294.086 23.056 294.822 23.44 295.91 23.696L307.43 26.384C310.758 27.152 313.158 27.92 314.63 28.688C316.102 29.392 317.286 30.32 318.182 31.472C319.206 32.688 319.942 34.256 320.39 36.176C320.902 38.096 321.158 40.432 321.158 43.184C321.158 50.16 319.302 55.216 315.59 58.352C311.878 61.424 306.118 62.96 298.31 62.96C294.342 62.96 290.566 62.704 286.982 62.192C283.398 61.744 280.614 61.168 278.63 60.464V46.352C281.19 47.184 284.23 47.856 287.75 48.368C291.27 48.816 294.79 49.04 298.31 49.04C301.126 49.04 303.078 48.688 304.166 47.984C305.254 47.28 305.798 45.872 305.798 43.76C305.798 42.416 305.606 41.456 305.222 40.88C304.902 40.24 304.23 39.792 303.206 39.536ZM363.615 36.656V1.808H378.495V36.656C378.495 45.424 376.351 52.016 372.063 56.432C367.775 60.784 361.343 62.96 352.767 62.96C343.743 62.96 337.151 60.88 332.991 56.72C328.895 52.56 326.847 45.872 326.847 36.656V1.808H341.727V36.656C341.727 41.52 342.463 44.816 343.935 46.544C345.471 48.208 348.415 49.04 352.767 49.04C357.055 49.04 359.935 48.208 361.407 46.544C362.879 44.816 363.615 41.52 363.615 36.656ZM447.521 1.808V62H433.601V25.904L423.329 50.48H411.233L401.153 25.904V62H387.233V1.808H405.377L417.569 32.144L430.049 1.808H447.521ZM498.174 48.08V62H456.702V1.808H497.31V15.248H471.582V25.232H493.758V37.712H471.582V48.08H498.174ZM528.019 39.536L515.827 36.656C510.963 35.504 507.635 33.744 505.843 31.376C504.115 29.008 503.251 25.616 503.251 21.2C503.251 14.224 505.075 9.104 508.723 5.84C512.435 2.512 518.163 0.847998 525.906 0.847998C529.107 0.847998 531.955 0.975998 534.451 1.232C536.947 1.488 539.251 1.936 541.363 2.576V15.92C536.499 15.088 533.139 14.608 531.283 14.48C529.491 14.352 527.603 14.288 525.619 14.288C522.931 14.288 520.979 14.736 519.763 15.632C518.547 16.528 517.939 18.032 517.939 20.144C517.939 21.168 518.131 21.968 518.515 22.544C518.899 23.056 519.635 23.44 520.723 23.696L532.243 26.384C535.571 27.152 537.971 27.92 539.443 28.688C540.915 29.392 542.099 30.32 542.995 31.472C544.019 32.688 544.755 34.256 545.203 36.176C545.715 38.096 545.971 40.432 545.971 43.184C545.971 50.16 544.115 55.216 540.403 58.352C536.691 61.424 530.931 62.96 523.123 62.96C519.155 62.96 515.379 62.704 511.795 62.192C508.211 61.744 505.427 61.168 503.443 60.464V46.352C506.003 47.184 509.043 47.856 512.562 48.368C516.083 48.816 519.603 49.04 523.123 49.04C525.939 49.04 527.891 48.688 528.979 47.984C530.067 47.28 530.611 45.872 530.611 43.76C530.611 42.416 530.419 41.456 530.035 40.88C529.715 40.24 529.043 39.792 528.019 39.536Z" fill="#2F3E99"/>
</svg>
