<svg width="474" height="66" viewBox="0 0 474 66" fill="none" xmlns="http://www.w3.org/2000/svg">
<path d="M23.808 65.96C17.728 65.96 13.312 64.424 10.56 61.352C7.808 58.28 6.432 54.12 6.432 48.872V32.84H0.48V19.496H6.432V10.184L24.48 5.86399V19.496H34.944L34.272 32.84H24.48V47.528C24.48 49.448 24.96 50.824 25.92 51.656C26.88 52.424 28.352 52.808 30.336 52.808C32.192 52.808 34.08 52.488 36 51.848V63.848C32.608 65.256 28.544 65.96 23.808 65.96ZM40.7888 65V0.295998H58.8368V22.28C60.4368 21.192 62.4208 20.296 64.7888 19.592C67.2208 18.888 69.8128 18.536 72.5648 18.536C78.8368 18.536 83.4128 20.008 86.2928 22.952C89.1728 25.832 90.6128 30.312 90.6128 36.392V65H72.4688V37.736C72.4688 35.624 72.0208 34.12 71.1248 33.224C70.2928 32.328 68.7568 31.88 66.5168 31.88C65.1728 31.88 63.7648 32.2 62.2928 32.84C60.8848 33.48 59.7328 34.248 58.8368 35.144V65H40.7888ZM123.22 65.96C117.908 65.96 113.204 65.096 109.108 63.368C105.076 61.576 101.908 58.92 99.6038 55.4C97.3638 51.88 96.2438 47.528 96.2438 42.344C96.2438 35.112 98.2918 29.352 102.388 25.064C106.484 20.712 112.596 18.536 120.724 18.536C128.148 18.536 133.94 20.424 138.1 24.2C142.324 27.976 144.436 33.128 144.436 39.656V47.624H112.852C113.684 50.056 115.316 51.784 117.748 52.808C120.18 53.832 123.476 54.344 127.636 54.344C130.26 54.344 132.884 54.12 135.508 53.672C138.196 53.16 140.34 52.584 141.94 51.944V62.792C137.46 64.904 131.22 65.96 123.22 65.96ZM112.852 37.832H128.884V36.2C128.884 34.408 128.308 32.936 127.156 31.784C126.068 30.632 124.116 30.056 121.3 30.056C118.164 30.056 115.956 30.728 114.676 32.072C113.46 33.352 112.852 35.272 112.852 37.832Z" fill="#849FAD"/>
<path d="M151.133 65V19.496H168.509L168.989 23.144C170.845 22.056 173.213 21.064 176.093 20.168C178.973 19.272 181.885 18.728 184.829 18.536V31.976C183.165 32.104 181.341 32.328 179.357 32.648C177.437 32.968 175.549 33.384 173.693 33.896C171.901 34.344 170.397 34.856 169.181 35.432V65H151.133ZM213.126 65.96C207.814 65.96 203.11 65.096 199.014 63.368C194.982 61.576 191.814 58.92 189.51 55.4C187.27 51.88 186.15 47.528 186.15 42.344C186.15 35.112 188.198 29.352 192.294 25.064C196.39 20.712 202.502 18.536 210.63 18.536C218.054 18.536 223.846 20.424 228.006 24.2C232.23 27.976 234.342 33.128 234.342 39.656V47.624H202.758C203.59 50.056 205.222 51.784 207.654 52.808C210.086 53.832 213.382 54.344 217.542 54.344C220.166 54.344 222.79 54.12 225.414 53.672C228.102 53.16 230.246 52.584 231.846 51.944V62.792C227.366 64.904 221.126 65.96 213.126 65.96ZM202.758 37.832H218.79V36.2C218.79 34.408 218.214 32.936 217.062 31.784C215.974 30.632 214.022 30.056 211.206 30.056C208.07 30.056 205.862 30.728 204.582 32.072C203.366 33.352 202.758 35.272 202.758 37.832ZM258.33 65.96C254.426 65.96 250.746 65.672 247.29 65.096C243.898 64.584 241.21 63.912 239.226 63.08V50.12C241.466 51.144 244.122 51.944 247.194 52.52C250.33 53.096 252.986 53.384 255.162 53.384C257.466 53.384 259.194 53.32 260.346 53.192C261.562 53.064 262.17 52.52 262.17 51.56C262.17 50.472 261.114 49.64 259.002 49.064C256.89 48.488 254.234 47.656 251.034 46.568C246.874 45.096 243.77 43.368 241.722 41.384C239.674 39.4 238.65 36.52 238.65 32.744C238.65 28.2 240.442 24.712 244.026 22.28C247.61 19.784 253.242 18.536 260.922 18.536C263.866 18.536 266.906 18.76 270.042 19.208C273.178 19.656 275.642 20.168 277.434 20.744V33.416C275.514 32.584 273.402 31.976 271.098 31.592C268.858 31.208 266.81 31.016 264.954 31.016C262.906 31.016 261.082 31.112 259.482 31.304C257.882 31.496 257.082 32.04 257.082 32.936C257.082 33.96 257.978 34.696 259.77 35.144C261.626 35.592 264.09 36.296 267.162 37.256C270.618 38.28 273.306 39.4 275.226 40.616C277.21 41.832 278.586 43.304 279.354 45.032C280.186 46.76 280.602 48.904 280.602 51.464C280.602 56.072 278.714 59.656 274.938 62.216C271.226 64.712 265.69 65.96 258.33 65.96ZM303.863 65.96C298.551 65.96 294.391 64.456 291.383 61.448C288.375 58.44 286.871 54.024 286.871 48.2V19.496H304.919V46.76C304.919 50.728 306.935 52.712 310.967 52.712C312.439 52.712 313.879 52.392 315.287 51.752C316.695 51.112 317.815 50.312 318.647 49.352V19.496H336.695V65H319.799L319.319 61.544C317.527 62.824 315.319 63.88 312.695 64.712C310.135 65.544 307.191 65.96 303.863 65.96ZM345.289 65V19.496H361.993L362.473 23.144C364.457 21.8 366.665 20.712 369.097 19.88C371.593 18.984 374.313 18.536 377.257 18.536C380.201 18.536 382.505 18.952 384.169 19.784C385.833 20.616 387.177 21.832 388.201 23.432C390.249 21.96 392.553 20.776 395.113 19.88C397.737 18.984 400.809 18.536 404.329 18.536C409.641 18.536 413.545 19.944 416.041 22.76C418.537 25.512 419.785 29.736 419.785 35.432V65H402.025V37.544C402.025 35.496 401.609 34.056 400.777 33.224C399.945 32.328 398.569 31.88 396.649 31.88C394.153 31.88 392.105 32.776 390.505 34.568C390.633 35.4 390.697 36.2 390.697 36.968C390.697 37.672 390.697 38.472 390.697 39.368V65H373.993V37.256C373.993 35.4 373.673 34.056 373.033 33.224C372.393 32.328 371.177 31.88 369.385 31.88C368.169 31.88 366.985 32.2 365.833 32.84C364.681 33.48 363.657 34.248 362.761 35.144V65H345.289ZM452.47 65.96C447.158 65.96 442.454 65.096 438.358 63.368C434.326 61.576 431.158 58.92 428.854 55.4C426.614 51.88 425.494 47.528 425.494 42.344C425.494 35.112 427.542 29.352 431.638 25.064C435.734 20.712 441.846 18.536 449.974 18.536C457.398 18.536 463.19 20.424 467.35 24.2C471.574 27.976 473.686 33.128 473.686 39.656V47.624H442.102C442.934 50.056 444.566 51.784 446.998 52.808C449.43 53.832 452.726 54.344 456.886 54.344C459.51 54.344 462.134 54.12 464.758 53.672C467.446 53.16 469.59 52.584 471.19 51.944V62.792C466.71 64.904 460.47 65.96 452.47 65.96ZM442.102 37.832H458.134V36.2C458.134 34.408 457.558 32.936 456.406 31.784C455.318 30.632 453.366 30.056 450.55 30.056C447.414 30.056 445.206 30.728 443.926 32.072C442.71 33.352 442.102 35.272 442.102 37.832Z" fill="#133141"/>
</svg>
